<?xml version="1.0" encoding="UTF-8" standalone="no"?>
<!-- Created with Inkscape (http://www.inkscape.org/) -->

<svg
   xmlns:dc="http://purl.org/dc/elements/1.1/"
   xmlns:cc="http://creativecommons.org/ns#"
   xmlns:rdf="http://www.w3.org/1999/02/22-rdf-syntax-ns#"
   xmlns:svg="http://www.w3.org/2000/svg"
   xmlns="http://www.w3.org/2000/svg"
   version="1.1"
   width="300"
   height="88.701675"
   id="svg4329">
  <defs
     id="defs4331" />
  <metadata
     id="metadata4334">
    <rdf:RDF>
      <cc:Work
         rdf:about="">
        <dc:format>image/svg+xml</dc:format>
        <dc:type
           rdf:resource="http://purl.org/dc/dcmitype/StillImage" />
        <cc:license
           rdf:resource="" />
        <dc:title></dc:title>
      </cc:Work>
    </rdf:RDF>
  </metadata>
  <g
     transform="translate(-67.882237,-318.2255)"
     id="layer1">
    <g
       transform="matrix(0,3.8062854,3.8062854,0,314.46863,373.86959)"
       id="g200">
      <path
         d="M 0,0 -7.866,2.362 0,4.729 0,0 z m 2.584,-17.322 0,-1.458 -10.891,0 0,1.439 c 0,2.183 0.911,4.606 5.418,4.606 3.999,0 5.473,-2.145 5.473,-4.587 M 0,-55.741 -7.961,-53.325 0,-50.951 0,-55.741 z m -13.957,62.41 0,-8.126 13.489,-4.644 c -1.121,0.218 -2.012,0.253 -2.406,0.253 -5.65,0 -11.083,-3.221 -11.083,-10.789 l 0,-8.681 13.421,0.016 c -3.812,-0.746 -4.841,-4.206 -6.154,-8.51 -0.493,-1.614 -1.286,-2.498 -2.027,-2.176 -0.643,0.275 -0.845,1.259 -0.676,2.459 0.256,1.826 0.874,3.283 1.641,4.692 l -4.777,1.922 c -0.225,-0.436 -2.09,-3.546 -2.09,-7.44 0,-5.446 2.658,-8.912 6.597,-8.912 3.502,0 5.542,2.153 6.693,6.102 1.229,4.244 1.731,5.322 2.964,5.196 C 2.686,-32.085 3.978,-34.718 0,-41.16 l 3.975,-1.908 -17.932,-5.921 0,-8.12 22.294,-7.675 0,6.407 -3.155,0.995 0,8.074 3.155,0.952 0,6.73 -2.179,-0.767 c 1.319,2.271 2.527,5.095 2.527,8.465 0,5.157 -2.835,7.948 -5.555,8.621 l 5.207,0 0,8.662 c 0,5.166 -2.478,7.87 -5.128,9.278 l 5.128,-1.764 0,6.4 -3.155,1.03 0,8.067 3.155,0.929 0,6.738 -22.294,-7.364"
         id="path202"
         style="fill:#7dc242;fill-opacity:1;fill-rule:nonzero;stroke:none" />
    </g>
  </g>
</svg>
