<?xml version="1.0" encoding="UTF-8" standalone="no"?>
<!-- Generator: Adobe Illustrator 14.0.0, SVG Export Plug-In . SVG Version: 6.00 Build 43363)  -->

<svg
   xmlns:dc="http://purl.org/dc/elements/1.1/"
   xmlns:cc="http://creativecommons.org/ns#"
   xmlns:rdf="http://www.w3.org/1999/02/22-rdf-syntax-ns#"
   xmlns:svg="http://www.w3.org/2000/svg"
   xmlns="http://www.w3.org/2000/svg"
   xmlns:sodipodi="http://sodipodi.sourceforge.net/DTD/sodipodi-0.dtd"
   xmlns:inkscape="http://www.inkscape.org/namespaces/inkscape"
   version="1.1"
   id="Layer_1"
   x="0px"
   y="0px"
   width="500"
   height="528.98688"
   viewBox="0 0 499.99999 528.98684"
   enable-background="new 0 0 420.38 270.243"
   xml:space="preserve"
   inkscape:version="0.48.5 r10040"
   sodipodi:docname="Co-op_Logo_2.svg"><metadata
   id="metadata19"><rdf:RDF><cc:Work
       rdf:about=""><dc:format>image/svg+xml</dc:format><dc:type
         rdf:resource="http://purl.org/dc/dcmitype/StillImage" /></cc:Work></rdf:RDF></metadata><defs
   id="defs17" /><sodipodi:namedview
   pagecolor="#ffffff"
   bordercolor="#666666"
   borderopacity="1"
   objecttolerance="10"
   gridtolerance="10"
   guidetolerance="10"
   inkscape:pageopacity="0"
   inkscape:pageshadow="2"
   inkscape:window-width="1063"
   inkscape:window-height="1033"
   id="namedview15"
   showgrid="false"
   fit-margin-left="0.5"
   fit-margin-bottom="0.5"
   fit-margin-top="0.5"
   fit-margin-right="0.5"
   inkscape:zoom="0.15342331"
   inkscape:cx="645.62855"
   inkscape:cy="431.38373"
   inkscape:window-x="850"
   inkscape:window-y="-11"
   inkscape:window-maximized="0"
   inkscape:current-layer="Layer_1"><inkscape:grid
     type="xygrid"
     id="grid3009"
     empspacing="5"
     visible="true"
     enabled="true"
     snapvisiblegridlinesonly="true"
     originx="-1603.7683px"
     originy="4942.4951px" /></sodipodi:namedview>






<path
   inkscape:connector-curvature="0"
   id="path3053"
   d="m 258.22502,441.79757 c 0.0516,-47.68051 0.17108,-87.47483 0.26549,-88.43187 0.0944,-0.957 0.33791,-3.64166 0.54111,-5.96588 0.95859,-10.96621 2.92521,-22.34126 5.73725,-33.18524 1.439,-5.54914 2.27876,-8.16452 3.84509,-11.9751 6.9376,-16.87804 19.09402,-30.01182 35.45602,-38.30656 4.98286,-2.52607 8.34734,-3.82572 15.51281,-5.99245 15.12514,-4.57366 28.8345,-7.07845 45.94905,-8.39523 5.06412,-0.38966 21.12183,-0.39096 26.47362,-0.005 18.49621,1.34371 36.79418,5.02042 52.82296,10.61397 7.31962,2.55434 15.31875,7.01596 21.87488,12.20097 2.67107,2.11243 9.06741,8.50927 11.2805,11.28139 4.01013,5.02312 8.00293,11.70103 10.55267,17.64907 3.10809,7.25058 6.39914,20.18402 8.35393,32.8296 l 0.63666,4.11877 c 2.73246,17.72973 2.52827,34.54803 -0.005,54.40428 l -0.74765,4.72302 c -1.94286,12.2737 -5.03746,24.54095 -7.96577,31.57695 -5.38236,12.93254 -14.26705,24.12827 -25.49235,32.12311 -8.47596,6.03675 -16.40422,9.48669 -30.91927,13.45419 -15.73443,4.3009 -30.92676,6.5367 -48.47942,7.1346 l -4.85383,0.1654 -12.33089,-33.89977 c -6.78201,-18.64486 -12.31381,-33.9207 -12.29289,-33.94638 0.021,-0.0255 0.98652,0.29031 2.14575,0.7021 9.16986,3.25768 25.8517,3.87477 38.89732,1.43891 6.35688,-1.18691 12.12755,-3.95519 16.65841,-7.99125 6.67401,-5.94514 9.90527,-12.16875 12.28474,-23.66128 1.58136,-7.6375 1.99185,-12.1282 1.87682,-20.53043 -0.11239,-8.20653 -0.69281,-12.9265 -2.4976,-20.30965 -2.25404,-9.22076 -5.14689,-14.65461 -10.52835,-19.77573 -5.03595,-4.79235 -10.63464,-7.63035 -17.78867,-9.01716 -5.92167,-1.1479 -9.51037,-1.46289 -16.66011,-1.46204 -7.26007,0 -11.36685,0.35879 -16.92858,1.47562 -10.90178,2.18916 -19.61924,8.59389 -24.3955,17.92334 -3.36553,6.57401 -5.78396,17.43368 -6.38685,28.67986 -0.0623,1.16209 -0.11938,39.2226 -0.12688,84.57884 l -0.011,82.46632 -36.42404,0 -36.4241,0 0.0938,-86.69178 z m -144.75188,39.79379 c -19.791021,-0.8495 -38.045977,-4.0994 -55.805929,-9.9348 -5.278111,-1.73427 -7.564422,-2.66998 -11.80747,-4.83267 C 27.964924,457.70313 14.732135,442.07455 8.6213089,422.84342 7.506576,419.33533 5.2544829,410.16083 4.2583812,405.07008 2.5413519,396.29462 1.1207256,385.32182 0.68716006,377.48662 0.43960815,373.01206 0.43731045,357.86099 0.68216507,353.4632 1.7155295,335.00674 6.2208145,312.68686 11.288936,300.91566 c 7.339195,-17.04602 20.822383,-30.74944 37.800968,-38.4185 3.696548,-1.66968 6.810977,-2.79395 12.677498,-4.57632 40.186478,-12.20966 83.110208,-11.65656 123.289798,1.58861 12.21141,4.02552 23.69475,11.41791 31.96631,20.57833 6.57002,7.27601 11.88984,16.07769 15.14283,25.05369 3.57347,9.86032 7.61512,30.11058 8.45902,42.38263 0.0893,1.29885 0.20699,2.64115 0.26154,2.98296 0.43247,2.70978 0.60669,17.37369 0.29086,24.48501 -0.83322,18.76125 -5.21088,41.81745 -10.24189,53.94155 -2.48396,5.986 -6.92341,13.46835 -10.98794,18.51909 -6.67651,8.29663 -16.09247,15.68443 -25.9367,20.3502 -10.37775,4.91855 -29.91887,10.01925 -46.73277,12.19825 -10.82425,1.4028 -23.87418,2.0166 -33.80672,1.5902 z m 15.97429,-64.33429 c 12.40012,-1.20295 19.26949,-3.86823 25.78995,-10.00628 5.26023,-4.95178 8.31887,-10.5711 10.5291,-19.34421 3.697,-14.67419 3.70409,-30.17876 0.0205,-44.83517 -2.15444,-8.57246 -4.8859,-13.78958 -9.78424,-18.68787 -7.93241,-7.9324 -17.96086,-11.04618 -35.44523,-11.00552 -13.98459,0.0325 -22.343213,1.93041 -29.507483,6.69988 -4.305386,2.86618 -8.454927,7.27052 -10.798828,11.46177 -2.901643,5.18865 -5.110979,13.00751 -6.448238,22.82038 -0.571927,4.19664 -0.689809,15.28543 -0.211389,19.88627 0.956842,9.20238 3.181612,18.22169 5.762775,23.36264 3.426666,6.82506 8.578304,11.96601 15.426541,15.39477 4.931358,2.46898 9.447832,3.4917 19.686422,4.45788 2.4923,0.23522 11.75037,0.10879 14.98004,-0.20454 z m -16.2229,-184.32234 c -2.52926,-0.10714 -5.54953,-0.26878 -6.71162,-0.35914 -2.65504,-0.20649 -7.1343,-0.63271 -7.954528,-0.75684 -0.341757,-0.0517 -1.292604,-0.16468 -2.112882,-0.2509 -0.820328,-0.0863 -1.771125,-0.19655 -2.112933,-0.24515 -0.341807,-0.0485 -1.162885,-0.16274 -1.824671,-0.25375 -0.661787,-0.091 -1.388859,-0.1997 -1.615781,-0.24161 -0.226873,-0.042 -1.58706,-0.26498 -3.022571,-0.49575 -11.63539,-1.87037 -28.038402,-6.17831 -36.168205,-9.49893 C 45.33192,218.23112 38.290177,214.09267 32.933645,209.80291 29.507628,207.05921 23.87777,201.3865 21.335118,198.11598 15.031885,190.00855 10.813212,181.79483 8.0864948,172.32103 4.1821077,158.75592 1.4849606,142.91944 0.69115606,128.89924 0.44220554,124.50195 0.4346631,109.30473 0.67916807,105.03571 1.3504953,93.322641 3.2751166,80.408681 6.0880475,68.743231 c 2.210335,-9.16672 3.7428991,-13.60197 6.9664185,-20.1614 8.674357,-17.65086 23.857991,-30.94229 42.748263,-37.42095 15.133035,-5.1901 32.163068,-8.66187 49.840001,-10.16052 5.22906,-0.44329999 19.75266,-0.59344999 25.72792,-0.26597999 17.98198,0.98555999 35.6705,4.26407999 52.69864,9.76745999 9.06417,2.92951 17.51874,7.41397 24.57612,13.03559 2.95599,2.35459 9.30937,8.68374 11.56761,11.5234 5.31907,6.68865 9.90537,15.12379 12.59083,23.15714 2.25729,6.75249 5.05354,19.33807 6.42541,28.92007 1.23681,8.63824 1.84066,15.673889 2.14945,25.044299 l 0.13721,4.16368 -36.40232,0 -36.40227,0 -0.13546,-0.55929 c -0.0745,-0.30764 -0.14066,-1.55699 -0.14706,-2.77642 -0.0395,-7.52895 -2.17157,-18.833069 -4.889,-25.920769 -2.17881,-5.68301 -6.63879,-11.34233 -11.91001,-15.11286 -5.20194,-3.72097 -10.22261,-5.48105 -19.26485,-6.75363 -3.96522,-0.55809 -17.81779,-0.63936 -21.87492,-0.12837 -4.08007,0.51384 -8.88395,1.45389 -11.061769,2.16453 -9.463167,3.08806 -17.198265,10.21107 -21.019386,19.35615 -1.786959,4.27662 -3.566726,11.60537 -4.494546,18.507359 -0.690358,5.1358 -0.850498,15.47109 -0.318231,20.54501 0.9483,9.04079 3.226267,18.33527 5.695392,23.23826 4.77032,9.47261 13.897723,16.36775 24.33242,18.38143 10.96021,2.11508 24.07747,2.11059 34.58024,-0.012 6.83995,-1.38226 12.77205,-4.51028 17.62294,-9.29263 5.71912,-5.6383 8.62995,-11.75997 10.8737,-22.86814 0.41414,-2.05014 0.77208,-3.74295 0.79551,-3.76178 0.0869,-0.0698 68.13637,31.73395 68.34371,31.94129 0.26653,0.26654 -1.47907,7.20019 -2.91838,11.59194 -5.58765,17.04996 -17.17653,31.5752 -32.57046,40.82309 -4.79964,2.88336 -9.53115,5.03575 -15.19117,6.91052 -11.24189,3.72362 -24.26259,6.79884 -35.64314,8.41811 -2.36213,0.33612 -7.02735,0.89486 -8.57595,1.02717 -0.95704,0.0818 -2.13156,0.18931 -2.61009,0.23902 -0.97931,0.10174 -4.16362,0.32572 -6.96017,0.4895 -4.2401,0.24836 -13.85032,0.32308 -18.14627,0.14106 z m 262.22972,0.15215 c -0.057,-0.0501 -2.34076,-0.16289 -5.07512,-0.2507 -2.73441,-0.0878 -5.36312,-0.20694 -5.84164,-0.26483 -0.47848,-0.0579 -1.84855,-0.17693 -3.0446,-0.26454 -1.19605,-0.0876 -2.48242,-0.19665 -2.85864,-0.2424 -0.37622,-0.0455 -1.41118,-0.15375 -2.29984,-0.24006 -1.41019,-0.13702 -3.9975,-0.46744 -5.96588,-0.76189 -0.3418,-0.0512 -1.12482,-0.16089 -1.74005,-0.24386 -9.51407,-1.28341 -24.22792,-4.85548 -34.71152,-8.42675 -11.30597,-3.85149 -19.99091,-9.19299 -28.51442,-17.53728 -9.96951,-9.75987 -16.28913,-20.74755 -20.1563,-35.04513 -3.23481,-11.95971 -5.13506,-23.01548 -6.47611,-37.67869 -0.63342,-6.92636 -0.63881,-24.97127 -0.009,-30.35423 0.0622,-0.53167 0.23581,-2.364929 0.38581,-4.073919 1.12782,-12.85027 4.62871,-30.5299 7.94204,-40.108 5.09784,-14.73668 14.60591,-27.52587 27.10084,-36.45312 8.00938,-5.72252 15.58239,-9.10982 28.83511,-12.89758 30.3351,-8.67010999 63.15191,-10.09753 94.08701,-4.09255 12.15307,2.35914 25.13501,6.037 32.43345,9.18865 18.08747,7.81057 32.35282,22.58391 39.75566,41.17134 2.75908,6.92751 5.74998,19.15725 7.58824,31.02815 l 0.63781,4.11878 c 2.42867,18.236019 2.62957,33.737889 -0.005,54.404279 l -0.73007,4.59869 c -1.48097,9.3289 -3.96248,20.12218 -6.08665,26.47362 -3.70019,11.06401 -9.58115,20.66654 -17.66575,28.84474 -7.47131,7.55788 -15.50446,12.94033 -25.20019,16.88498 -8.29494,3.37472 -24.34071,7.58605 -36.0744,9.46796 -1.43556,0.23022 -2.78886,0.4516 -3.00739,0.49186 -0.21848,0.0405 -0.99051,0.1486 -1.71563,0.24066 -0.72512,0.0921 -1.51888,0.20599 -1.76393,0.25314 -0.24511,0.0475 -1.20689,0.16239 -2.13736,0.25595 -0.93042,0.0935 -1.87692,0.20454 -2.10319,0.2467 -0.42208,0.0786 -4.78521,0.49525 -7.66732,0.73222 -4.19085,0.34455 -17.67673,0.74635 -17.91839,0.53381 z m 12.77399,-64.68707 c 4.87732,-0.47788 9.78984,-1.40435 12.50642,-2.35854 8.76252,-3.07797 16.10122,-9.65682 19.9573,-17.89107 1.95499,-4.17467 4.12667,-12.81391 5.15169,-20.49386 0.54136,-4.05664 0.62822,-16.23893 0.1453,-20.38343 -0.92342,-7.924709 -2.86847,-16.265249 -4.89454,-20.988409 -1.77348,-4.13431 -5.04315,-8.75728 -8.27651,-11.70223 -3.39145,-3.089 -8.21017,-5.8875 -12.60936,-7.32306 -2.17782,-0.71064 -6.98166,-1.65069 -11.06177,-2.16453 -3.51517,-0.4427 -17.6595,-0.44485 -20.88057,-0.005 -9.61377,1.31833 -14.03873,2.7441 -19.26679,6.20793 -5.26193,3.48625 -9.21497,7.99508 -11.92485,13.60136 -2.51888,5.21118 -4.69974,14.20272 -5.63735,23.242109 -0.38737,3.73476 -0.37713,14.01556 0.0175,17.64907 0.70529,6.49234 2.36713,14.32864 4.05903,19.14056 4.05793,11.54099 13.74158,19.88972 25.91648,22.34381 8.16582,1.64595 17.47988,2.03641 26.79799,1.12343 z"
   style="fill:#01b1dd;fill-opacity:1"
   sodipodi:nodetypes="ccsssssscsssssccssssscscsssssssscssscccccccssssscssssssccssssscccsssssssssssscccscssccsssssscsssssssssssccccsssssssssssssscssssscsscccsscssscsssscssssssssccssssssscccscccsssssssscssscsscc" /></svg>