<?xml version="1.0" encoding="UTF-8" standalone="no"?>
<!-- Created with Inkscape (http://www.inkscape.org/) -->

<svg
   xmlns:dc="http://purl.org/dc/elements/1.1/"
   xmlns:cc="http://creativecommons.org/ns#"
   xmlns:rdf="http://www.w3.org/1999/02/22-rdf-syntax-ns#"
   xmlns:svg="http://www.w3.org/2000/svg"
   xmlns="http://www.w3.org/2000/svg"
   xmlns:sodipodi="http://sodipodi.sourceforge.net/DTD/sodipodi-0.dtd"
   xmlns:inkscape="http://www.inkscape.org/namespaces/inkscape"
   width="211.77383"
   height="48.102291"
   viewBox="0 0 56.031825 12.727065"
   version="1.1"
   id="svg12164"
   inkscape:version="0.92.0 r15299"
   sodipodi:docname="iceland.svg">
  <defs
     id="defs12158">
    <clipPath
       id="clipPath11981"
       clipPathUnits="userSpaceOnUse">
      <path
         inkscape:connector-curvature="0"
         id="path11979"
         d="M 218.129,716.613 H 376.21 v 35.326 H 218.129 Z" />
    </clipPath>
  </defs>
  <sodipodi:namedview
     id="base"
     pagecolor="#ffffff"
     bordercolor="#666666"
     borderopacity="1.0"
     inkscape:pageopacity="0.0"
     inkscape:pageshadow="2"
     inkscape:zoom="4.2557567"
     inkscape:cx="105.38666"
     inkscape:cy="23.550473"
     inkscape:document-units="mm"
     inkscape:current-layer="layer1"
     showgrid="false"
     fit-margin-top="0"
     fit-margin-left="0"
     fit-margin-right="0"
     fit-margin-bottom="0"
     units="px"
     inkscape:window-width="1280"
     inkscape:window-height="744"
     inkscape:window-x="-4"
     inkscape:window-y="-4"
     inkscape:window-maximized="1" />
  <metadata
     id="metadata12161">
    <rdf:RDF>
      <cc:Work
         rdf:about="">
        <dc:format>image/svg+xml</dc:format>
        <dc:type
           rdf:resource="http://purl.org/dc/dcmitype/StillImage" />
        <dc:title></dc:title>
      </cc:Work>
    </rdf:RDF>
  </metadata>
  <g
     inkscape:label="Layer 1"
     inkscape:groupmode="layer"
     id="layer1"
     transform="translate(-99.872397,-210.37305)">
    <g
       id="g12239"
       transform="translate(0.13229199,-0.13228715)">
      <path
         d="m 130.62717,213.232 c -1.54587,0 -2.91641,0.36407 -3.6449,0.62653 0.0293,0.10196 0.32138,1.55999 0.36477,1.73496 0.90382,-0.32067 2.09903,-0.53869 2.88678,-0.53869 1.26753,0 1.81998,0.36372 1.81998,1.26718 v 0.36477 c -3.97827,0 -5.6395,1.41323 -5.6395,3.23568 0,2.026 1.85208,3.17747 4.48909,3.17747 1.7198,0 3.23604,-0.29139 3.86257,-0.48119 v -6.17961 c 0,-2.17205 -1.37125,-3.2071 -4.13879,-3.2071 m 1.42663,8.00241 c -0.26105,0.0579 -0.6992,0.0875 -0.93133,0.0875 -0.91899,0 -1.89477,-0.37924 -1.89477,-1.42875 0,-1.04916 0.90382,-1.54481 2.8261,-1.53035 z"
         style="fill:#d11c2e;fill-opacity:1;fill-rule:nonzero;stroke:none;stroke-width:0.35277778"
         id="path11985"
         inkscape:connector-curvature="0" />
      <path
         d="m 109.10805,213.232 c -2.82681,0 -4.95476,2.12831 -4.95476,5.16008 0,2.81305 1.95297,4.70782 4.88279,4.70782 0.75848,0 1.77906,-0.21872 2.31775,-0.43744 l -0.42262,-1.63195 c -0.51012,0.17462 -1.07915,0.24765 -1.48696,0.24765 -1.57374,0 -2.55094,-1.15182 -2.55094,-3.04624 0,-1.90994 1.09361,-3.17712 2.66806,-3.17712 0.37818,0 0.78669,0.1009 1.10702,0.21802 l 0.46707,-1.67675 c -0.55456,-0.23248 -1.3409,-0.36407 -2.02741,-0.36407"
         style="fill:#d11c2e;fill-opacity:1;fill-rule:nonzero;stroke:none;stroke-width:0.35277778"
         id="path11989"
         inkscape:connector-curvature="0" />
      <path
         d="m 152.91373,210.63788 v 2.72556 c -0.30621,-0.0586 -0.74295,-0.13123 -1.36948,-0.13123 -2.31846,0 -4.80978,1.58856 -4.80978,4.99956 0,3.04624 1.98156,4.86834 5.28991,4.86834 1.39947,0 2.95945,-0.21908 3.61526,-0.40887 v -12.05336 z m 0,10.62496 c -0.23319,0.0441 -0.55386,0.0586 -0.74295,0.0586 -1.70568,0 -2.68182,-1.16593 -2.68182,-3.16265 0,-1.51624 0.641,-3.10409 2.53542,-3.10409 0.26282,0 0.69885,0.043 0.88935,0.10124 z"
         style="fill:#d11c2e;fill-opacity:1;fill-rule:nonzero;stroke:none;stroke-width:0.35277778"
         id="path11993"
         inkscape:connector-curvature="0" />
      <path
         d="m 117.78504,221.32161 c -2.14242,0 -2.8134,-0.91863 -2.98873,-1.77765 l 5.81483,-1.23931 c -0.0138,-4.25591 -2.54988,-5.07223 -4.19664,-5.07223 -2.14277,0 -4.46017,1.55963 -4.46017,4.99956 0,3.04589 2.04047,4.86798 5.42184,4.86798 1.02094,0 2.14313,-0.21872 2.72556,-0.43779 l -0.36371,-1.6316 c -0.53975,0.17427 -1.31198,0.29104 -1.95298,0.29104 m -1.37054,-6.2671 c 0.88935,0 1.48696,0.64065 1.58926,1.8796 l -3.33833,0.71403 c -0.0286,-1.64642 0.65652,-2.59363 1.74907,-2.59363"
         style="fill:#d11c2e;fill-opacity:1;fill-rule:nonzero;stroke:none;stroke-width:0.35277778"
         id="path11997"
         inkscape:connector-curvature="0" />
      <path
         inkscape:connector-curvature="0"
         id="path11999"
         style="fill:#d11c2e;fill-opacity:1;fill-rule:nonzero;stroke:none;stroke-width:0.35277778"
         d="m 122.15772,222.91042 h 2.7111 v -12.27279 h -2.7111 z" />
      <path
         inkscape:connector-curvature="0"
         id="path12001"
         style="fill:#d11c2e;fill-opacity:1;fill-rule:nonzero;stroke:none;stroke-width:0.35277778"
         d="m 99.872397,222.91042 h 2.711093 v -12.27279 h -2.711093 z" />
      <path
         d="m 139.4021,215.17093 c 0.39299,-0.0882 1.00542,-0.16122 1.48661,-0.16122 1.00612,0 1.66123,0.29245 1.66123,1.60408 v 6.29673 h 2.7118 v -6.44278 c 0,-2.20063 -1.34162,-3.23568 -4.31377,-3.23568 -1.67746,0 -3.58669,0.3355 -4.27178,0.48049 v 9.19797 h 2.72591 z"
         style="fill:#d11c2e;fill-opacity:1;fill-rule:nonzero;stroke:none;stroke-width:0.35277778"
         id="path12005"
         inkscape:connector-curvature="0" />
    </g>
  </g>
</svg>
