<?xml version="1.0" encoding="UTF-8" standalone="no"?>
<!-- Created with Inkscape (http://www.inkscape.org/) -->
<svg
   xmlns:svg="http://www.w3.org/2000/svg"
   xmlns="http://www.w3.org/2000/svg"
   version="1.0"
   width="540"
   height="112"
   id="svg3410">
  <defs
     id="defs3412" />
  <g
     transform="translate(-91.15032,-466.70795)"
     id="layer1">
    <path
       d="M 186.38719,578.67628 L 159.06046,512.98546 L 131.73598,578.67628 L 91.15032,480.15142 L 107.61516,480.15142 L 132.00257,543.70042 L 159.06046,477.30322 L 186.02944,543.70042 L 210.50572,480.15142 L 226.97285,480.15142 L 186.38719,578.67628"
       id="path227"
       style="fill:#7bb134;fill-opacity:1;fill-rule:nonzero;stroke-width:0;stroke-linecap:butt;stroke-linejoin:miter;stroke-miterlimit:10" />
    <path
       d="M 277.79612,541.19399 C 277.79612,555.2755 270.14013,564.61755 255.18824,564.61755 C 244.32864,564.61755 234.00451,556.59705 234.00451,541.37627 C 234.00451,525.54032 244.32864,518.15777 255.18824,518.15777 C 270.14013,518.15777 277.79612,527.13531 277.79612,541.19399 z M 292.48139,576.35214 L 292.48139,506.40041 L 277.79612,506.40041 L 277.79612,515.56022 C 273.07719,508.88405 264.53263,505.05607 255.18824,505.05607 C 235.16201,505.05607 218.8726,520.27685 218.8726,541.37627 C 218.8726,562.99979 236.40837,577.51423 255.18824,577.51423 C 264.53263,577.51423 272.63289,573.41282 277.79612,566.82776 L 277.79612,576.35214 L 292.48139,576.35214"
       id="path231"
       style="fill:#7bb134;fill-opacity:1;fill-rule:nonzero;stroke-width:0;stroke-linecap:butt;stroke-linejoin:miter;stroke-miterlimit:10" />
    <path
       d="M 313.22085,489.76696 C 308.50196,489.76696 304.76511,486.09848 304.76511,481.38185 C 304.76511,476.66522 308.50196,472.83725 313.22085,472.83725 C 317.93748,472.83725 321.58543,476.66522 321.58543,481.38185 C 321.58543,486.09848 317.93748,489.76696 313.22085,489.76696 z M 305.83148,506.40041 L 320.51905,506.40041 L 320.51905,576.35214 L 305.83148,576.35214 L 305.83148,506.40041 z"
       id="path235"
       style="fill:#7bb134;fill-opacity:1;fill-rule:nonzero;stroke-width:0;stroke-linecap:butt;stroke-linejoin:miter;stroke-miterlimit:10" />
    <path
       d="M 357.81221,519.13754 L 357.81221,576.35214 L 343.12694,576.35214 L 343.12694,519.13754 L 329.50796,519.13754 L 329.50796,506.40041 L 343.12694,506.40041 L 343.12694,481.22235 L 357.81221,466.70795 L 357.81221,506.40041 L 373.47729,506.40041 L 373.47729,519.13754 L 357.81221,519.13754"
       id="path239"
       style="fill:#7bb134;fill-opacity:1;fill-rule:nonzero;stroke-width:0;stroke-linecap:butt;stroke-linejoin:miter;stroke-miterlimit:10" />
    <path
       d="M 421.45236,520.64141 C 419.31505,519.3882 416.82234,518.15777 412.28343,518.15777 C 403.73883,518.15777 397.15381,523.48961 397.15381,535.15581 L 397.15381,576.35214 L 382.4662,576.35214 L 382.4662,506.40041 L 397.15381,506.40041 L 397.15381,516.19822 C 401.33498,508.26883 407.65567,505.05607 414.68733,505.05607 C 419.7594,505.05607 426.43558,506.58268 431.24103,511.02587 L 421.45236,520.64141"
       id="path243"
       style="fill:#7bb134;fill-opacity:1;fill-rule:nonzero;stroke-width:0;stroke-linecap:butt;stroke-linejoin:miter;stroke-miterlimit:10" />
    <path
       d="M 487.40521,541.19399 C 487.40521,554.6375 479.12719,564.61755 465.4194,564.61755 C 451.625,564.61755 443.52474,554.6375 443.52474,541.19399 C 443.52474,527.75052 451.625,518.15777 465.4194,518.15777 C 479.12719,518.15777 487.40521,527.75052 487.40521,541.19399 z M 502.44597,541.19399 C 502.44597,520.27685 485.98113,505.05607 465.4194,505.05607 C 444.7711,505.05607 428.48398,520.27685 428.48398,541.19399 C 428.48398,562.11117 444.7711,577.69651 465.4194,577.69651 C 485.98113,577.69651 502.44597,562.11117 502.44597,541.19399"
       id="path247"
       style="fill:#7bb134;fill-opacity:1;fill-rule:nonzero;stroke-width:0;stroke-linecap:butt;stroke-linejoin:miter;stroke-miterlimit:10" />
    <path
       d="M 533.59842,577.69651 C 526.30021,577.69651 519.17969,576.01036 509.83533,571.02033 L 509.83533,556.07299 C 516.68697,560.78958 526.12249,565.14165 533.15411,565.14165 C 538.85051,565.14165 543.5671,563.82006 543.5671,558.64775 C 543.5671,555.09322 542.32074,552.76907 535.02254,548.66766 L 522.29447,541.55855 C 514.28538,536.93308 510.10192,531.85189 510.10192,524.46938 C 510.10192,513.16774 518.55766,505.05607 533.77614,505.05607 C 540.80776,505.05607 548.28598,506.85612 555.13763,510.50182 L 555.13763,524.99344 C 548.73033,520.91485 540.80776,517.70205 533.77614,517.70205 C 528.1709,517.70205 524.78723,519.84392 524.78723,523.67189 C 524.78723,525.97321 525.05381,527.31759 531.0191,530.87212 L 543.21165,537.91285 C 553.00261,543.51814 558.34357,548.23472 558.34357,557.21226 C 558.34357,570.40512 548.01714,577.69651 533.59842,577.69651"
       id="path251"
       style="fill:#7bb134;fill-opacity:1;fill-rule:nonzero;stroke-width:0;stroke-linecap:butt;stroke-linejoin:miter;stroke-miterlimit:10" />
    <path
       d="M 614.8609,533.01399 L 581.12914,533.01399 C 583.35301,524.5605 589.49602,517.88433 599.01809,517.88433 C 608.09816,517.88433 614.4166,524.10483 614.8609,533.01399 z M 631.15032,545.02197 L 631.15032,543.95103 C 631.15032,517.88433 618.06685,505.05607 599.01809,505.05607 C 580.32709,505.05607 565.10631,519.20592 565.10631,540.30538 C 565.10631,565.05049 582.19551,577.69651 601.24427,577.69651 C 611.30181,577.69651 621.27049,574.66603 627.23348,568.44557 L 617.88912,559.26297 C 613.6168,562.56689 608.45361,564.61755 601.24427,564.61755 C 588.42734,564.61755 581.75117,555.2755 580.32709,545.02197 L 631.15032,545.02197"
       id="path255"
       style="fill:#7bb134;fill-opacity:1;fill-rule:nonzero;stroke-width:0;stroke-linecap:butt;stroke-linejoin:miter;stroke-miterlimit:10" />
  </g>
</svg>
