<?xml version="1.0" encoding="iso-8859-1"?>
<!-- Generator: Adobe Illustrator 19.0.0, SVG Export Plug-In . SVG Version: 6.00 Build 0)  -->
<svg version="1.1" id="Capa_1" xmlns="http://www.w3.org/2000/svg" xmlns:xlink="http://www.w3.org/1999/xlink" x="0px" y="0px"
	 viewBox="0 0 512 512" style="enable-background:new 0 0 512 512;" xml:space="preserve">
<g>
	<g>
		<path d="M266.667,448.213V276.779c71.488-5.483,128-65.259,128-138.133c0-30.144-16.107-80.213-27.883-116.779l-4.608-14.4
			C360.768,3.029,356.672,0,352,0H161.579c-4.437,0-8.427,2.752-9.984,6.891c-10.304,27.307-34.261,94.763-34.261,131.776
			c0,72.853,56.512,132.651,128,138.133v171.435c-53.525,2.176-106.667,20.629-106.667,53.12c0,5.867,4.779,10.645,10.667,10.645
			h213.333c5.888,0,10.667-4.779,10.667-10.667C373.333,468.843,320.171,450.389,266.667,448.213z M139.2,149.333
			c-0.32-3.52-0.533-7.061-0.533-10.667c0-25.899,15.211-76.309,30.315-117.333h175.232l2.261,7.104
			c10.688,33.216,26.859,83.435,26.859,110.229c0,3.605-0.213,7.147-0.533,10.667H139.2z"/>
	</g>
</g>
<g>
</g>
<g>
</g>
<g>
</g>
<g>
</g>
<g>
</g>
<g>
</g>
<g>
</g>
<g>
</g>
<g>
</g>
<g>
</g>
<g>
</g>
<g>
</g>
<g>
</g>
<g>
</g>
<g>
</g>
</svg>
